<svg width="396" height="33" viewBox="0 0 396 33" fill="none" xmlns="http://www.w3.org/2000/svg">
<path d="M2.272 25C1.67467 25 1.216 24.744 0.896 24.232C0.576 23.72 0.544 23.176 0.8 22.6L9.792 1.128C10.112 0.381332 10.6347 0.00799942 11.36 0.00799942C12.128 0.00799942 12.6507 0.381332 12.928 1.128L21.952 22.664C22.1867 23.2613 22.1547 23.8053 21.856 24.296C21.5787 24.7653 21.1307 25 20.512 25C20.192 25 19.8827 24.9147 19.584 24.744C19.3067 24.552 19.104 24.296 18.976 23.976L10.976 4.264H12L3.808 23.976C3.65867 24.3173 3.43467 24.5733 3.136 24.744C2.85867 24.9147 2.57067 25 2.272 25ZM32.301 25.128C30.7437 25.128 29.3463 24.744 28.109 23.976C26.8717 23.1867 25.8903 22.1307 25.165 20.808C24.461 19.464 24.109 17.9493 24.109 16.264C24.109 14.5787 24.493 13.064 25.261 11.72C26.0503 10.376 27.1063 9.32 28.429 8.552C29.773 7.76267 31.277 7.368 32.941 7.368C34.605 7.368 36.0983 7.76267 37.421 8.552C38.7437 9.32 39.789 10.376 40.557 11.72C41.3463 13.064 41.741 14.5787 41.741 16.264H40.493C40.493 17.9493 40.1303 19.464 39.405 20.808C38.701 22.1307 37.7303 23.1867 36.493 23.976C35.2557 24.744 33.8583 25.128 32.301 25.128ZM32.941 22.248C34.029 22.248 34.9997 21.992 35.853 21.48C36.7063 20.9467 37.3783 20.232 37.869 19.336C38.3597 18.4187 38.605 17.3947 38.605 16.264C38.605 15.112 38.3597 14.088 37.869 13.192C37.3783 12.2747 36.7063 11.56 35.853 11.048C34.9997 10.5147 34.029 10.248 32.941 10.248C31.8743 10.248 30.9037 10.5147 30.029 11.048C29.1757 11.56 28.493 12.2747 27.981 13.192C27.4903 14.088 27.245 15.112 27.245 16.264C27.245 17.3947 27.4903 18.4187 27.981 19.336C28.493 20.232 29.1757 20.9467 30.029 21.48C30.9037 21.992 31.8743 22.248 32.941 22.248ZM40.109 25.032C39.6397 25.032 39.245 24.8827 38.925 24.584C38.6263 24.264 38.477 23.8693 38.477 23.4V18.504L39.085 15.112L41.741 16.264V23.4C41.741 23.8693 41.581 24.264 41.261 24.584C40.9623 24.8827 40.5783 25.032 40.109 25.032ZM52.5828 25.256C51.5588 25.256 50.6094 25.1493 49.7348 24.936C48.8814 24.7227 48.1028 24.4347 47.3988 24.072C46.7161 23.688 46.1188 23.272 45.6068 22.824C45.2654 22.504 45.0948 22.1307 45.0948 21.704C45.0948 21.256 45.2761 20.8933 45.6388 20.616C45.9588 20.36 46.3428 20.2533 46.7908 20.296C47.2601 20.3173 47.6548 20.4773 47.9748 20.776C48.4868 21.224 49.1268 21.608 49.8948 21.928C50.6628 22.2267 51.5481 22.376 52.5508 22.376C53.7241 22.376 54.6521 22.1307 55.3348 21.64C56.0388 21.128 56.3908 20.4773 56.3908 19.688C56.3908 18.984 56.1348 18.4293 55.6228 18.024C55.1321 17.5973 54.5134 17.3733 53.7668 17.352H51.9427C51.4734 17.352 51.0788 17.224 50.7588 16.968C50.4388 16.712 50.2788 16.4027 50.2788 16.04C50.2788 15.6773 50.4388 15.3787 50.7588 15.144C51.0788 14.9093 51.4734 14.792 51.9427 14.792H53.7348C54.4388 14.7493 54.9614 14.5147 55.3028 14.088C55.6654 13.6613 55.8468 13.128 55.8468 12.488C55.8468 11.784 55.5481 11.2293 54.9508 10.824C54.3534 10.4187 53.4894 10.216 52.3588 10.216C51.4414 10.216 50.6094 10.344 49.8628 10.6C49.1161 10.856 48.4974 11.2293 48.0068 11.72C47.6654 12.0613 47.2921 12.2533 46.8868 12.296C46.5028 12.3173 46.1294 12.1893 45.7668 11.912C45.4894 11.6987 45.3614 11.3893 45.3828 10.984C45.4254 10.5787 45.6068 10.2053 45.9268 9.864C46.6094 9.11733 47.5268 8.50933 48.6788 8.04C49.8308 7.57067 51.0361 7.336 52.2948 7.336C53.5961 7.336 54.7481 7.56 55.7508 8.008C56.7534 8.456 57.5428 9.05333 58.1188 9.8C58.6948 10.5467 58.9828 11.368 58.9828 12.264C58.9828 13.0107 58.7801 13.672 58.3748 14.248C57.9908 14.8027 57.4681 15.24 56.8068 15.56C56.1668 15.8587 55.4521 16.008 54.6628 16.008V15.752C55.5801 15.752 56.4014 15.9333 57.1268 16.296C57.8734 16.6587 58.4601 17.1493 58.8868 17.768C59.3134 18.3653 59.5268 19.0587 59.5268 19.848C59.5268 20.872 59.2174 21.7893 58.5988 22.6C58.0014 23.4107 57.1801 24.0613 56.1348 24.552C55.0894 25.0213 53.9054 25.256 52.5828 25.256ZM71.7603 25.128C69.9896 25.128 68.4109 24.7547 67.0243 24.008C65.6589 23.24 64.5816 22.1947 63.7923 20.872C63.0243 19.528 62.6403 17.992 62.6403 16.264C62.6403 14.5147 63.0029 12.9787 63.7283 11.656C64.4749 10.312 65.4989 9.26667 66.8003 8.52C68.1016 7.752 69.5949 7.368 71.2803 7.368C72.9443 7.368 74.3736 7.74133 75.5683 8.488C76.7629 9.21333 77.6696 10.2267 78.2882 11.528C78.9283 12.808 79.2483 14.2907 79.2483 15.976C79.2483 16.3813 79.1096 16.7227 78.8323 17C78.5549 17.256 78.2029 17.384 77.7763 17.384H64.8802V14.824H77.6803L76.3683 15.72C76.3469 14.6533 76.1336 13.704 75.7283 12.872C75.3229 12.0187 74.7469 11.3467 74.0003 10.856C73.2536 10.3653 72.3469 10.12 71.2803 10.12C70.0643 10.12 69.0189 10.3867 68.1443 10.92C67.2909 11.4533 66.6403 12.1893 66.1923 13.128C65.7443 14.0453 65.5203 15.0907 65.5203 16.264C65.5203 17.4373 65.7869 18.4827 66.3203 19.4C66.8536 20.3173 67.5896 21.0427 68.5283 21.576C69.4669 22.1093 70.5443 22.376 71.7603 22.376C72.4216 22.376 73.0936 22.2587 73.7763 22.024C74.4803 21.768 75.0456 21.48 75.4723 21.16C75.7923 20.9253 76.1336 20.808 76.4963 20.808C76.8803 20.7867 77.2109 20.8933 77.4883 21.128C77.8509 21.448 78.0429 21.8 78.0643 22.184C78.0856 22.568 77.9149 22.8987 77.5522 23.176C76.8269 23.752 75.9203 24.2213 74.8323 24.584C73.7656 24.9467 72.7416 25.128 71.7603 25.128ZM85.0433 32.488C84.5739 32.488 84.1793 32.328 83.8593 32.008C83.5606 31.7093 83.4113 31.3253 83.4113 30.856V16.264C83.4326 14.5787 83.8273 13.064 84.5953 11.72C85.3633 10.376 86.4086 9.32 87.7313 8.552C89.0539 7.76267 90.5473 7.368 92.2113 7.368C93.8966 7.368 95.4006 7.76267 96.7233 8.552C98.0459 9.32 99.0913 10.376 99.8593 11.72C100.649 13.064 101.043 14.5787 101.043 16.264C101.043 17.9493 100.681 19.464 99.9553 20.808C99.2513 22.1307 98.2806 23.1867 97.0433 23.976C95.8059 24.744 94.4086 25.128 92.8513 25.128C91.5926 25.128 90.4299 24.872 89.3633 24.36C88.3179 23.8267 87.4219 23.112 86.6753 22.216V30.856C86.6753 31.3253 86.5259 31.7093 86.2273 32.008C85.9286 32.328 85.5339 32.488 85.0433 32.488ZM92.2113 22.248C93.2993 22.248 94.2699 21.992 95.1233 21.48C95.9766 20.9467 96.6486 20.232 97.1393 19.336C97.6513 18.4187 97.9073 17.3947 97.9073 16.264C97.9073 15.112 97.6513 14.088 97.1393 13.192C96.6486 12.2747 95.9766 11.56 95.1233 11.048C94.2699 10.5147 93.2993 10.248 92.2113 10.248C91.1446 10.248 90.1739 10.5147 89.2993 11.048C88.4459 11.56 87.7739 12.2747 87.2833 13.192C86.7926 14.088 86.5473 15.112 86.5473 16.264C86.5473 17.3947 86.7926 18.4187 87.2833 19.336C87.7739 20.232 88.4459 20.9467 89.2993 21.48C90.1739 21.992 91.1446 22.248 92.2113 22.248ZM128.887 25.032C128.418 25.032 128.023 24.8827 127.703 24.584C127.405 24.264 127.255 23.8693 127.255 23.4V14.248C127.255 12.904 126.925 11.912 126.263 11.272C125.602 10.6107 124.738 10.28 123.671 10.28C122.562 10.28 121.645 10.664 120.919 11.432C120.215 12.2 119.863 13.1813 119.863 14.376H117.207C117.207 12.9893 117.506 11.7733 118.103 10.728C118.701 9.66133 119.533 8.82933 120.599 8.232C121.687 7.63467 122.925 7.336 124.311 7.336C125.527 7.336 126.605 7.60267 127.543 8.136C128.482 8.66933 129.207 9.45867 129.719 10.504C130.253 11.528 130.519 12.776 130.519 14.248V23.4C130.519 23.8693 130.37 24.264 130.071 24.584C129.773 24.8827 129.378 25.032 128.887 25.032ZM107.543 25.032C107.074 25.032 106.679 24.8827 106.359 24.584C106.061 24.264 105.911 23.8693 105.911 23.4V9.16C105.911 8.66933 106.061 8.27467 106.359 7.976C106.679 7.67733 107.074 7.528 107.543 7.528C108.034 7.528 108.429 7.67733 108.727 7.976C109.026 8.27467 109.175 8.66933 109.175 9.16V23.4C109.175 23.8693 109.026 24.264 108.727 24.584C108.429 24.8827 108.034 25.032 107.543 25.032ZM118.231 25.032C117.762 25.032 117.367 24.8827 117.047 24.584C116.749 24.264 116.599 23.8693 116.599 23.4V14.248C116.599 12.904 116.269 11.912 115.607 11.272C114.946 10.6107 114.082 10.28 113.015 10.28C111.906 10.28 110.989 10.664 110.263 11.432C109.538 12.2 109.175 13.1813 109.175 14.376H107.159C107.159 12.9893 107.437 11.7733 107.991 10.728C108.546 9.66133 109.314 8.82933 110.295 8.232C111.277 7.63467 112.397 7.336 113.655 7.336C114.871 7.336 115.949 7.60267 116.887 8.136C117.826 8.66933 118.551 9.45867 119.063 10.504C119.597 11.528 119.863 12.776 119.863 14.248V23.4C119.863 23.8693 119.714 24.264 119.415 24.584C119.117 24.8827 118.722 25.032 118.231 25.032ZM143.239 25.128C141.681 25.128 140.284 24.744 139.047 23.976C137.809 23.1867 136.828 22.1307 136.103 20.808C135.399 19.464 135.047 17.9493 135.047 16.264C135.047 14.5787 135.431 13.064 136.199 11.72C136.988 10.376 138.044 9.32 139.367 8.552C140.711 7.76267 142.215 7.368 143.879 7.368C145.543 7.368 147.036 7.76267 148.359 8.552C149.681 9.32 150.727 10.376 151.495 11.72C152.284 13.064 152.679 14.5787 152.679 16.264H151.431C151.431 17.9493 151.068 19.464 150.343 20.808C149.639 22.1307 148.668 23.1867 147.431 23.976C146.193 24.744 144.796 25.128 143.239 25.128ZM143.879 22.248C144.967 22.248 145.937 21.992 146.791 21.48C147.644 20.9467 148.316 20.232 148.807 19.336C149.297 18.4187 149.543 17.3947 149.543 16.264C149.543 15.112 149.297 14.088 148.807 13.192C148.316 12.2747 147.644 11.56 146.791 11.048C145.937 10.5147 144.967 10.248 143.879 10.248C142.812 10.248 141.841 10.5147 140.967 11.048C140.113 11.56 139.431 12.2747 138.919 13.192C138.428 14.088 138.183 15.112 138.183 16.264C138.183 17.3947 138.428 18.4187 138.919 19.336C139.431 20.232 140.113 20.9467 140.967 21.48C141.841 21.992 142.812 22.248 143.879 22.248ZM151.047 25.032C150.577 25.032 150.183 24.8827 149.863 24.584C149.564 24.264 149.415 23.8693 149.415 23.4V18.504L150.023 15.112L152.679 16.264V23.4C152.679 23.8693 152.519 24.264 152.199 24.584C151.9 24.8827 151.516 25.032 151.047 25.032ZM162.944 25.128C161.6 25.128 160.395 24.9253 159.328 24.52C158.283 24.0933 157.451 23.5067 156.832 22.76C156.235 22.0133 155.936 21.16 155.936 20.2C155.936 19.24 156.203 18.4187 156.736 17.736C157.291 17.0533 158.08 16.4773 159.104 16.008C160.15 15.5387 161.398 15.1653 162.848 14.888C164.299 14.5893 165.28 14.2373 165.792 13.832C166.304 13.4053 166.56 12.8613 166.56 12.2C166.56 11.5173 166.219 11.016 165.536 10.696C164.854 10.3547 164.064 10.184 163.168 10.184C162.422 10.184 161.675 10.3013 160.928 10.536C160.203 10.7707 159.595 11.112 159.104 11.56C158.784 11.8587 158.432 12.0613 158.048 12.168C157.664 12.2747 157.355 12.2533 157.12 12.104C156.715 11.848 156.459 11.5173 156.352 11.112C156.267 10.7067 156.363 10.3333 156.64 9.992C157.28 9.20267 158.176 8.57333 159.328 8.104C160.502 7.61333 161.792 7.368 163.2 7.368C164.395 7.368 165.483 7.56 166.464 7.944C167.446 8.30667 168.224 8.85067 168.8 9.576C169.398 10.3013 169.696 11.1973 169.696 12.264C169.696 13.5013 169.195 14.5467 168.192 15.4C167.19 16.232 165.664 16.872 163.616 17.32C161.931 17.6613 160.768 18.0667 160.128 18.536C159.488 18.984 159.179 19.528 159.2 20.168C159.222 20.8293 159.542 21.3413 160.16 21.704C160.779 22.0667 161.707 22.248 162.944 22.248C164.054 22.248 164.992 22.1413 165.76 21.928C166.55 21.6933 167.168 21.3413 167.616 20.872C167.915 20.552 168.256 20.3387 168.64 20.232C169.024 20.1253 169.419 20.2427 169.824 20.584C170.187 20.8827 170.368 21.224 170.368 21.608C170.368 21.992 170.208 22.3547 169.888 22.696C169.184 23.4 168.203 23.9867 166.944 24.456C165.686 24.904 164.352 25.128 162.944 25.128ZM191.467 25C190.998 25 190.603 24.84 190.283 24.52C189.963 24.2 189.803 23.8053 189.803 23.336V0.00799942H193.131V23.336C193.131 23.8053 192.971 24.2 192.651 24.52C192.331 24.84 191.936 25 191.467 25ZM182.891 3.08C182.443 3.08 182.07 2.94133 181.771 2.664C181.494 2.36533 181.355 1.992 181.355 1.544C181.355 1.096 181.494 0.733333 181.771 0.455999C182.07 0.157333 182.443 0.00799942 182.891 0.00799942H200.011C200.459 0.00799942 200.822 0.157333 201.099 0.455999C201.398 0.733333 201.547 1.096 201.547 1.544C201.547 1.992 201.398 2.36533 201.099 2.664C200.822 2.94133 200.459 3.08 200.011 3.08H182.891ZM208.323 25.128C206.552 25.128 204.973 24.7547 203.587 24.008C202.221 23.24 201.144 22.1947 200.355 20.872C199.587 19.528 199.203 17.992 199.203 16.264C199.203 14.5147 199.565 12.9787 200.291 11.656C201.037 10.312 202.061 9.26667 203.363 8.52C204.664 7.752 206.157 7.368 207.843 7.368C209.507 7.368 210.936 7.74133 212.131 8.488C213.325 9.21333 214.232 10.2267 214.851 11.528C215.491 12.808 215.811 14.2907 215.811 15.976C215.811 16.3813 215.672 16.7227 215.395 17C215.117 17.256 214.765 17.384 214.339 17.384H201.443V14.824H214.243L212.931 15.72C212.909 14.6533 212.696 13.704 212.291 12.872C211.885 12.0187 211.309 11.3467 210.563 10.856C209.816 10.3653 208.909 10.12 207.843 10.12C206.627 10.12 205.581 10.3867 204.707 10.92C203.853 11.4533 203.203 12.1893 202.755 13.128C202.307 14.0453 202.083 15.0907 202.083 16.264C202.083 17.4373 202.349 18.4827 202.883 19.4C203.416 20.3173 204.152 21.0427 205.091 21.576C206.029 22.1093 207.107 22.376 208.323 22.376C208.984 22.376 209.656 22.2587 210.339 22.024C211.043 21.768 211.608 21.48 212.035 21.16C212.355 20.9253 212.696 20.808 213.059 20.808C213.443 20.7867 213.773 20.8933 214.051 21.128C214.413 21.448 214.605 21.8 214.627 22.184C214.648 22.568 214.477 22.8987 214.115 23.176C213.389 23.752 212.483 24.2213 211.395 24.584C210.328 24.9467 209.304 25.128 208.323 25.128ZM221.606 32.488C221.136 32.488 220.742 32.328 220.422 32.008C220.123 31.7093 219.974 31.3253 219.974 30.856V16.264C219.995 14.5787 220.39 13.064 221.158 11.72C221.926 10.376 222.971 9.32 224.294 8.552C225.616 7.76267 227.11 7.368 228.774 7.368C230.459 7.368 231.963 7.76267 233.286 8.552C234.608 9.32 235.654 10.376 236.422 11.72C237.211 13.064 237.606 14.5787 237.606 16.264C237.606 17.9493 237.243 19.464 236.518 20.808C235.814 22.1307 234.843 23.1867 233.606 23.976C232.368 24.744 230.971 25.128 229.414 25.128C228.155 25.128 226.992 24.872 225.926 24.36C224.88 23.8267 223.984 23.112 223.238 22.216V30.856C223.238 31.3253 223.088 31.7093 222.79 32.008C222.491 32.328 222.096 32.488 221.606 32.488ZM228.774 22.248C229.862 22.248 230.832 21.992 231.686 21.48C232.539 20.9467 233.211 20.232 233.702 19.336C234.214 18.4187 234.47 17.3947 234.47 16.264C234.47 15.112 234.214 14.088 233.702 13.192C233.211 12.2747 232.539 11.56 231.686 11.048C230.832 10.5147 229.862 10.248 228.774 10.248C227.707 10.248 226.736 10.5147 225.862 11.048C225.008 11.56 224.336 12.2747 223.846 13.192C223.355 14.088 223.11 15.112 223.11 16.264C223.11 17.3947 223.355 18.4187 223.846 19.336C224.336 20.232 225.008 20.9467 225.862 21.48C226.736 21.992 227.707 22.248 228.774 22.248ZM244.106 32.488C243.636 32.488 243.242 32.328 242.922 32.008C242.623 31.7093 242.474 31.3253 242.474 30.856V16.264C242.495 14.5787 242.89 13.064 243.658 11.72C244.426 10.376 245.471 9.32 246.794 8.552C248.116 7.76267 249.61 7.368 251.274 7.368C252.959 7.368 254.463 7.76267 255.786 8.552C257.108 9.32 258.154 10.376 258.922 11.72C259.711 13.064 260.106 14.5787 260.106 16.264C260.106 17.9493 259.743 19.464 259.018 20.808C258.314 22.1307 257.343 23.1867 256.106 23.976C254.868 24.744 253.471 25.128 251.914 25.128C250.655 25.128 249.492 24.872 248.426 24.36C247.38 23.8267 246.484 23.112 245.738 22.216V30.856C245.738 31.3253 245.588 31.7093 245.29 32.008C244.991 32.328 244.596 32.488 244.106 32.488ZM251.274 22.248C252.362 22.248 253.332 21.992 254.186 21.48C255.039 20.9467 255.711 20.232 256.202 19.336C256.714 18.4187 256.97 17.3947 256.97 16.264C256.97 15.112 256.714 14.088 256.202 13.192C255.711 12.2747 255.039 11.56 254.186 11.048C253.332 10.5147 252.362 10.248 251.274 10.248C250.207 10.248 249.236 10.5147 248.362 11.048C247.508 11.56 246.836 12.2747 246.346 13.192C245.855 14.088 245.61 15.112 245.61 16.264C245.61 17.3947 245.855 18.4187 246.346 19.336C246.836 20.232 247.508 20.9467 248.362 21.48C249.236 21.992 250.207 22.248 251.274 22.248ZM272.334 25.16C270.862 25.16 269.539 24.8507 268.366 24.232C267.214 23.592 266.296 22.664 265.614 21.448C264.952 20.232 264.622 18.7387 264.622 16.968V9.096C264.622 8.62667 264.771 8.24266 265.07 7.944C265.39 7.624 265.784 7.464 266.254 7.464C266.723 7.464 267.107 7.624 267.406 7.944C267.726 8.24266 267.886 8.62667 267.886 9.096V16.968C267.886 18.1627 268.11 19.1547 268.558 19.944C269.006 20.712 269.614 21.288 270.382 21.672C271.15 22.0347 272.014 22.216 272.974 22.216C273.891 22.216 274.702 22.0347 275.406 21.672C276.131 21.3093 276.707 20.8187 277.134 20.2C277.56 19.5813 277.774 18.888 277.774 18.12H279.79C279.79 19.4427 279.459 20.6373 278.798 21.704C278.158 22.7707 277.272 23.6133 276.142 24.232C275.032 24.8507 273.763 25.16 272.334 25.16ZM279.406 25C278.936 25 278.542 24.8507 278.222 24.552C277.923 24.232 277.774 23.8373 277.774 23.368V9.096C277.774 8.60533 277.923 8.21067 278.222 7.912C278.542 7.61333 278.936 7.464 279.406 7.464C279.896 7.464 280.291 7.61333 280.59 7.912C280.888 8.21067 281.038 8.60533 281.038 9.096V23.368C281.038 23.8373 280.888 24.232 280.59 24.552C280.291 24.8507 279.896 25 279.406 25ZM309.762 25.032C309.293 25.032 308.898 24.8827 308.578 24.584C308.28 24.264 308.13 23.8693 308.13 23.4V14.248C308.13 12.904 307.8 11.912 307.138 11.272C306.477 10.6107 305.613 10.28 304.546 10.28C303.437 10.28 302.52 10.664 301.794 11.432C301.09 12.2 300.738 13.1813 300.738 14.376H298.082C298.082 12.9893 298.381 11.7733 298.978 10.728C299.576 9.66133 300.408 8.82933 301.474 8.232C302.562 7.63467 303.8 7.336 305.186 7.336C306.402 7.336 307.48 7.60267 308.418 8.136C309.357 8.66933 310.082 9.45867 310.594 10.504C311.128 11.528 311.394 12.776 311.394 14.248V23.4C311.394 23.8693 311.245 24.264 310.946 24.584C310.648 24.8827 310.253 25.032 309.762 25.032ZM288.418 25.032C287.949 25.032 287.554 24.8827 287.234 24.584C286.936 24.264 286.786 23.8693 286.786 23.4V9.16C286.786 8.66933 286.936 8.27467 287.234 7.976C287.554 7.67733 287.949 7.528 288.418 7.528C288.909 7.528 289.304 7.67733 289.602 7.976C289.901 8.27467 290.05 8.66933 290.05 9.16V23.4C290.05 23.8693 289.901 24.264 289.602 24.584C289.304 24.8827 288.909 25.032 288.418 25.032ZM299.106 25.032C298.637 25.032 298.242 24.8827 297.922 24.584C297.624 24.264 297.474 23.8693 297.474 23.4V14.248C297.474 12.904 297.144 11.912 296.482 11.272C295.821 10.6107 294.957 10.28 293.89 10.28C292.781 10.28 291.864 10.664 291.138 11.432C290.413 12.2 290.05 13.1813 290.05 14.376H288.034C288.034 12.9893 288.312 11.7733 288.866 10.728C289.421 9.66133 290.189 8.82933 291.17 8.232C292.152 7.63467 293.272 7.336 294.53 7.336C295.746 7.336 296.824 7.60267 297.762 8.136C298.701 8.66933 299.426 9.45867 299.938 10.504C300.472 11.528 300.738 12.776 300.738 14.248V23.4C300.738 23.8693 300.589 24.264 300.29 24.584C299.992 24.8827 299.597 25.032 299.106 25.032ZM324.754 25.128C323.026 25.128 321.5 24.7547 320.178 24.008C318.855 23.24 317.81 22.1947 317.042 20.872C316.295 19.528 315.922 17.992 315.922 16.264C315.922 14.5147 316.295 12.9787 317.042 11.656C317.81 10.312 318.855 9.26667 320.178 8.52C321.5 7.752 323.026 7.368 324.754 7.368C326.46 7.368 327.975 7.752 329.298 8.52C330.62 9.26667 331.655 10.312 332.402 11.656C333.17 12.9787 333.554 14.5147 333.554 16.264C333.554 17.992 333.18 19.528 332.434 20.872C331.687 22.1947 330.652 23.24 329.33 24.008C328.007 24.7547 326.482 25.128 324.754 25.128ZM324.754 22.248C325.863 22.248 326.844 21.992 327.698 21.48C328.551 20.968 329.212 20.264 329.682 19.368C330.172 18.472 330.418 17.4373 330.418 16.264C330.418 15.0907 330.172 14.056 329.682 13.16C329.212 12.2427 328.551 11.528 327.698 11.016C326.844 10.504 325.863 10.248 324.754 10.248C323.644 10.248 322.663 10.504 321.81 11.016C320.956 11.528 320.284 12.2427 319.794 13.16C319.303 14.056 319.058 15.0907 319.058 16.264C319.058 17.4373 319.303 18.472 319.794 19.368C320.284 20.264 320.956 20.968 321.81 21.48C322.663 21.992 323.644 22.248 324.754 22.248ZM340.043 32.488C339.574 32.488 339.179 32.328 338.859 32.008C338.561 31.7093 338.411 31.3253 338.411 30.856V16.264C338.433 14.5787 338.827 13.064 339.595 11.72C340.363 10.376 341.409 9.32 342.731 8.552C344.054 7.76267 345.547 7.368 347.211 7.368C348.897 7.368 350.401 7.76267 351.723 8.552C353.046 9.32 354.091 10.376 354.859 11.72C355.649 13.064 356.043 14.5787 356.043 16.264C356.043 17.9493 355.681 19.464 354.955 20.808C354.251 22.1307 353.281 23.1867 352.043 23.976C350.806 24.744 349.409 25.128 347.851 25.128C346.593 25.128 345.43 24.872 344.363 24.36C343.318 23.8267 342.422 23.112 341.675 22.216V30.856C341.675 31.3253 341.526 31.7093 341.227 32.008C340.929 32.328 340.534 32.488 340.043 32.488ZM347.211 22.248C348.299 22.248 349.27 21.992 350.123 21.48C350.977 20.9467 351.649 20.232 352.139 19.336C352.651 18.4187 352.907 17.3947 352.907 16.264C352.907 15.112 352.651 14.088 352.139 13.192C351.649 12.2747 350.977 11.56 350.123 11.048C349.27 10.5147 348.299 10.248 347.211 10.248C346.145 10.248 345.174 10.5147 344.299 11.048C343.446 11.56 342.774 12.2747 342.283 13.192C341.793 14.088 341.547 15.112 341.547 16.264C341.547 17.3947 341.793 18.4187 342.283 19.336C342.774 20.232 343.446 20.9467 344.299 21.48C345.174 21.992 346.145 22.248 347.211 22.248ZM368.271 25.16C366.799 25.16 365.477 24.8507 364.303 24.232C363.151 23.592 362.234 22.664 361.551 21.448C360.89 20.232 360.559 18.7387 360.559 16.968V9.096C360.559 8.62667 360.709 8.24266 361.007 7.944C361.327 7.624 361.722 7.464 362.191 7.464C362.661 7.464 363.045 7.624 363.343 7.944C363.663 8.24266 363.823 8.62667 363.823 9.096V16.968C363.823 18.1627 364.047 19.1547 364.495 19.944C364.943 20.712 365.551 21.288 366.319 21.672C367.087 22.0347 367.951 22.216 368.911 22.216C369.829 22.216 370.639 22.0347 371.343 21.672C372.069 21.3093 372.645 20.8187 373.071 20.2C373.498 19.5813 373.711 18.888 373.711 18.12H375.727C375.727 19.4427 375.397 20.6373 374.735 21.704C374.095 22.7707 373.21 23.6133 372.079 24.232C370.97 24.8507 369.701 25.16 368.271 25.16ZM375.343 25C374.874 25 374.479 24.8507 374.159 24.552C373.861 24.232 373.711 23.8373 373.711 23.368V9.096C373.711 8.60533 373.861 8.21067 374.159 7.912C374.479 7.61333 374.874 7.464 375.343 7.464C375.834 7.464 376.229 7.61333 376.527 7.912C376.826 8.21067 376.975 8.60533 376.975 9.096V23.368C376.975 23.8373 376.826 24.232 376.527 24.552C376.229 24.8507 375.834 25 375.343 25ZM393.796 25C393.348 25 392.974 24.8507 392.676 24.552C392.377 24.232 392.228 23.8373 392.228 23.368V19.144H387.716V18.728C386.585 18.728 385.582 18.504 384.708 18.056C383.833 17.608 383.15 16.9893 382.66 16.2C382.169 15.4107 381.924 14.4933 381.924 13.448C381.924 12.3173 382.19 11.304 382.724 10.408C383.278 9.512 384.025 8.808 384.964 8.296C385.924 7.76267 387.022 7.496 388.26 7.496H393.796C394.286 7.496 394.681 7.64533 394.98 7.944C395.278 8.24266 395.428 8.63733 395.428 9.128V23.4C395.406 23.8693 395.246 24.2533 394.948 24.552C394.67 24.8507 394.286 25 393.796 25ZM382.436 24.616C382.094 24.3173 381.934 23.9867 381.956 23.624C381.977 23.2613 382.105 22.9307 382.34 22.632L386.244 17.544H390.5L385.028 24.36C384.665 24.8293 384.217 25.0533 383.684 25.032C383.15 25.0107 382.734 24.872 382.436 24.616ZM388.26 16.456H392.228V10.536H388.26C387.406 10.536 386.66 10.8133 386.02 11.368C385.38 11.9013 385.06 12.5947 385.06 13.448C385.06 14.344 385.38 15.0693 386.02 15.624C386.66 16.1787 387.406 16.456 388.26 16.456Z" fill="white"/>
</svg>
